<?xml version="1.0" encoding="UTF-8"?>
<svg width="256" height="256" viewBox="0 0 7.68 7.68" xmlns="http://www.w3.org/2000/svg">
  <title>Calendar</title>
  <path
    fill="#0d1721"
    d="m 5.28,5.25 h 0.6000001 c 0.1662,0 0.3,0.1338 0.3,0.3 V 5.7 c 0,0.1662 -0.1338,0.3 -0.3,0.3 H 5.28 C 5.1138,6 4.98,5.8662 4.98,5.7 V 5.55 c 0,-0.1662 0.1338,-0.3 0.3,-0.3 z m -1.7400002,0 h 0.6 c 0.1662,0 0.3,0.1338 0.3,0.3 V 5.7 c 0,0.1662 -0.1338,0.3 -0.3,0.3 h -0.6 c -0.1662,0 -0.3,-0.1338 -0.3,-0.3 V 5.55 c 0,-0.1662 0.1338,-0.3 0.3,-0.3 z M 1.8,5.25 h 0.6 c 0.1662,0 0.3,0.1338 0.3,0.3 V 5.7 C 2.7,5.8662 2.5662,6 2.4,6 H 1.8 C 1.6338,6 1.5,5.8662 1.5,5.7 V 5.55 c 0,-0.1662 0.1338,-0.3 0.3,-0.3 z M 5.28,3.9000001 h 0.6000001 c 0.1662,0 0.3,0.1338 0.3,0.3 v 0.15 c 0,0.1662 -0.1338,0.3 -0.3,0.3 H 5.28 c -0.1662,0 -0.3,-0.1338 -0.3,-0.3 v -0.15 c 0,-0.1662 0.1338,-0.3 0.3,-0.3 z m -1.74,0 h 0.6 c 0.1662001,0 0.3000001,0.1338 0.3000001,0.3 v 0.15 c 0,0.1662 -0.1338,0.3 -0.3000001,0.3 h -0.6 c -0.1662,0 -0.3,-0.1338 -0.3,-0.3 v -0.15 c 0,-0.1662 0.1338,-0.3 0.3,-0.3 z m -1.74,0 h 0.6 c 0.1662,0 0.3,0.1338 0.3,0.3 v 0.15 c 0,0.1662 -0.1338,0.3 -0.3,0.3 H 1.8 c -0.1662,0 -0.3,-0.1338 -0.3,-0.3 v -0.15 c 0,-0.1662 0.1338,-0.3 0.3,-0.3 z M 0,0 V 7.68 H 7.68 V 0 Z m 2.3585156,0.84 c 0.1227288,0 0.2222461,0.0995173 0.2222461,0.2222461 v 0.4482422 c 0.1971169,-0.00382 0.4180199,-0.00381 0.6666211,-0.00381 h 1.1852344 c 0.2485923,0 0.4694953,-1.36e-5 0.6666211,0.00381 V 1.0622461 C 5.0992383,0.93951733 5.1987586,0.84 5.3214844,0.84 c 0.1227258,0 0.2222461,0.0995173 0.2222461,0.2222461 V 1.5301758 C 5.9701893,1.5643239 6.2501121,1.6481004 6.4558008,1.8537891 6.6614895,2.0594777 6.7453394,2.3394502 6.7794727,2.765918 H 0.90052734 C 0.93467546,2.3394502 1.0184519,2.0594777 1.2241406,1.8537891 1.4298293,1.6481004 1.7098018,1.5643239 2.1362695,1.5301758 V 1.0622461 C 2.1362695,0.93951733 2.2357869,0.84 2.3585156,0.84 Z M 0.88083984,3.2103516 H 6.7991602 c 0.00382,0.1971257 0.00381,0.4180873 0.00381,0.6666796 v 0.5926172 c 0,1.1173915 -2.75e-5,1.6760729 -0.3471679,2.0231836 C 6.10869,6.8399724 5.5500087,6.84 4.4326172,6.84 H 3.2473828 C 2.1299795,6.84 1.5712751,6.8399724 1.2241406,6.492832 0.87700912,6.1457213 0.87703125,5.5870399 0.87703125,4.4696484 V 3.8770312 c 0,-0.2485923 -1.362e-5,-0.4695539 0.003809,-0.6666796 z" />
</svg>