<?xml version="1.0" encoding="UTF-8"?>
<svg width="256" height="256" viewBox="0 0 256 256" xmlns="http://www.w3.org/2000/svg">
  <title>C++</title>
  <path
    fill="#0d1721"
    d="M 0,0 V 256 H 256 V 0 Z m 110.75977,45 c 29.44497,0 56.90798,15.846041 71.66796,41.353516 l -35.8164,20.724604 c -7.38699,-12.767882 -21.12558,-20.699214 -35.85156,-20.699214 -22.817382,0 -41.380864,18.563884 -41.380864,41.380864 0,22.81597 18.563482,41.3789 41.380864,41.3789 14.72698,0 28.46552,-7.93314 35.85351,-20.70312 l 35.81641,20.72461 C 167.6697,194.67013 140.20674,210.51758 110.75977,210.51758 65.126211,210.51758 28,173.39272 28,127.75977 28,82.126211 65.126211,45 110.75977,45 Z m 64.36718,68.96484 h 9.19336 v 9.19532 h 9.19727 v 9.19531 h -9.19727 v 9.19726 h -9.19336 v -9.19726 h -9.19531 v -9.19531 h 9.19531 z m 34.48243,0 h 9.19531 v 9.19532 H 228 v 9.19531 h -9.19531 v 9.19726 h -9.19531 v -9.19726 h -9.19532 v -9.19531 h 9.19532 z" />
</svg>