<?xml version="1.0" encoding="UTF-8"?>
<svg width="256" height="256" viewBox="0 0 256 256" xmlns="http://www.w3.org/2000/svg">
  <title>C#</title>
  <path
    fill="#0d1721"
    d="M 0,0 V 256 H 256 V 0 Z m 122.00195,33 c 35.02932,0 65.6192,18.96943 82.0918,47.1875 l 0.008,-0.0039 0.16016,0.273437 c -0.0531,-0.09175 -0.11452,-0.177978 -0.16797,-0.269531 L 162.7541,103.99024 C 154.6081,90.196954 139.67124,80.888971 122.53925,80.697272 l -0.53711,-0.002 c -26.125971,0 -47.306637,21.177758 -47.306638,47.302738 0,8.54399 2.277086,16.55371 6.238282,23.4707 8.154092,14.23499 23.483376,23.83789 41.068356,23.83789 17.69199,0 33.10771,-9.72434 41.22071,-24.11133 l -0.19727,0.34375 41.28516,23.91797 c -16.25399,28.12997 -46.51699,47.15811 -81.25196,47.53711 L 122.00195,223 C 86.746988,223 55.975315,203.79536 39.582031,175.27539 31.579139,161.3524 27,145.21103 27,127.99805 27,75.532499 69.533306,33 122.00195,33 Z m 66.69727,67.66797 h 6.73633 v 13.47461 h 13.47461 v -13.47461 h 6.73632 v 13.47461 h 13.47266 v 6.73633 h -13.47266 v 13.47265 h 13.47266 v 6.73828 h -13.47266 v 13.47266 h -6.73632 v -13.47266 h -13.47461 v 13.47266 h -6.73633 v -13.47266 h -13.47266 v -6.73828 h 13.47266 v -13.47265 h -13.47266 v -6.73633 h 13.47266 z m 6.73633,20.21094 v 13.47265 h 13.47461 v -13.47265 z" />
</svg>