<?xml version="1.0" encoding="UTF-8"?>
<svg width="256" height="256" viewBox="-52.5 0 115.52 115.52" xmlns="http://www.w3.org/2000/svg">
  <title>CSS-3</title>
  <path
    fill="#0d1721"
    d="M -52.5,0 V 115.52 H 63.02 V 0 Z m 40.838125,12.635 h 9.6948242 v 4.054199 h -5.640625 v 4.054199 h 5.640625 v 4.0542 h -9.6948242 z m 11.63378906,0 H 9.6667383 v 3.525391 h -5.640625 v 0.705078 h 5.640625 v 8.108398 h -9.69482424 v -3.70166 H 5.6125391 v -0.705078 h -5.64062504 z m 11.63378894,0 h 9.694824 v 3.525391 h -5.640625 v 0.705078 h 5.640625 v 8.108398 h -9.694824 v -3.70166 h 5.640625 V 20.567129 H 11.605703 Z M -26.709124,30.37124 H 37.229124 L 31.404297,95.626221 5.2212207,102.885 -20.890466,95.635916 Z m 11.898194,13.34096 0.727112,8.004399 h 30.595102 l -0.727993,8.196533 h -29.153218 l 0.717417,8.0044 h 27.741299 l -0.92894,10.381394 -8.9351029,2.412248 -8.9148315,-2.40696 -0.5693506,-6.383601 h -8.035247 l 1.121075,12.568017 16.3965914,4.55128 16.4186256,-4.55128 c 2.130057,-23.92657 -0.314676,3.580749 3.641728,-40.77643 z" />
</svg>