<?xml version="1.0" encoding="UTF-8"?>
<svg width="256" height="256" viewBox="0 0 256 256" xmlns="http://www.w3.org/2000/svg">
  <title>Dataiku</title>
  <path
    fill="#0d1721"
    d="M 0,0 V 256 H 256 V 0 Z M 128,28 A 100,100 0 0 1 228,128 100,100 0 1 1 128,28 Z m 34.9082,41.496094 c -7.96817,-0.262044 -15.8483,5.781261 -14.79101,16.953125 L 67.75,185.54102 c 0,0 0.316408,1.44205 1.566406,0.77539 1.949998,-0.975 8.425548,-8.03376 35.617184,-35.27539 9.14999,-9.18333 24.44141,-8.41602 24.44141,-8.41602 h 15.58398 c 21.16665,0 33.08268,-20.21604 29.66602,-42.916016 -1.825,-12.099987 1.60742,-16.625 1.60742,-16.625 l 6.56836,-8.117187 -7.36719,2.066406 c -2.93124,-4.95312 -7.74448,-7.379883 -12.52539,-7.537109 z m 0,8.470703 a 3.9666667,3.9666667 0 0 1 3.91602,3.949219 3.9666667,3.9666667 0 1 1 -3.91602,-3.949219 z m -30.74218,70.083983 v 7.7832 h 50.22656 l -0.01,-7.7832 z" />
</svg>