<?xml version="1.0" encoding="UTF-8"?>
<svg width="256" height="256" viewBox="0 0 256 256" xmlns="http://www.w3.org/2000/svg">
  <title>Django</title>
  <path
    fill="#0d1721"
    d="M 0,0 V 256 H 256 V 0 Z m 112.68945,51 h 28.61524 v 132.44922 c -14.67899,2.787 -25.45712,3.90234 -37.16211,3.90234 C 69.208913,187.35056 51,171.55945 51,141.27148 c 0,-29.17297 19.325564,-48.124996 49.24023,-48.124996 4.645,0 8.17523,0.37153 12.44922,1.486328 z m 45.52344,0.152344 h 28.61328 v 29.357422 h -28.61328 z m 0,44.037109 h 28.61328 v 66.332027 c 0,22.85598 -1.67246,33.81794 -6.68945,43.29493 -4.646,9.10599 -10.77712,14.8656 -23.41211,21.18359 l -26.57227,-12.63672 c 12.63499,-5.94499 18.76698,-11.14568 22.66797,-19.13867 4.089,-8.17499 5.39258,-17.65085 5.39258,-42.54883 z m -55.18555,20.996097 c -14.493382,0 -22.855465,8.92036 -22.855465,24.52734 0,15.23799 7.990937,23.59766 22.669925,23.59766 3.15699,0 5.76066,-0.18619 9.84765,-0.74219 v -45.89648 c -3.34399,-1.113 -6.13211,-1.48633 -9.66211,-1.48633 z" />
</svg>