<?xml version="1.0" encoding="UTF-8"?>
<svg width="300" height="300" viewBox="0 -4 20.000016 20.000016" xmlns="http://www.w3.org/2000/svg">
  <title>Flag UK</title>
  <g transform="translate(-4.0153558,-3.8382751)">
    <rect
      width="28"
      height="20"
      fill="#0a17a7"
      x="0.25079361"
      y="-0.1616665" />
    <path
      d="m -1.0316464,-2.0781065 11.9491404,8.05979 v -7.47668 h 6.6667 v 7.47668 l 11.9491,-8.05979 1.4912,2.210764 -9.4474,6.372346 h 6.6737 v 6.6666295 h -6.6737 l 9.4474,6.3724 -1.4912,2.2108 -11.9491,-8.0598 v 7.476601 h -6.6667 v -7.476601 l -11.9491404,8.0598 -1.49118,-2.2108 9.44739,-6.3724 H 0.25082316 V 6.5050035 H 6.9245636 l -9.44739,-6.372346 z"
      fill="#ffffff" />
    <path
      d="m 18.918794,6.1705235 12.6653,-8.33219"
      stroke="#db1f35"
      stroke-width="0.666667"
      stroke-linecap="round" />
    <path
      d="m 20.263594,13.535833 11.3538,7.652801"
      stroke="#db1f35"
      stroke-width="0.666667"
      stroke-linecap="round" />
    <path
      d="m 8.2563436,6.1487935 -11.84301,-7.98145"
      stroke="#db1f35"
      stroke-width="0.666667"
      stroke-linecap="round" />
    <path
      d="m 9.5408536,13.443234 -13.12752,8.7056"
      stroke="#db1f35"
      stroke-width="0.666667"
      stroke-linecap="round" />
    <path
      d="M 0.2507936,11.838333 H 12.250794 v 8 h 4 v -8 h 12 V 7.8383335 h -12 v -8 h -4 v 8 H 0.2507936 Z"
      fill="#e6273e" />
  </g>
</svg>