<?xml version="1.0" encoding="UTF-8"?>
<svg width="256" height="256" viewBox="0 0 256 256" xmlns="http://www.w3.org/2000/svg">
  <title>GitHub</title>
  <path
    fill="#0d1721"
    d="M 0,0 V 256 H 256 V 0 Z M 128.00195,30 C 183.2279,30 228,74.771808 228,130.00195 c 0,44.16796 -28.61616,81.63897 -68.32812,94.87696 -5.069,0.982 -6.86915,-2.13783 -6.86915,-4.79883 0,-3.294 0.11524,-14.06142 0.11524,-27.44141 0,-9.32999 -3.19621,-15.41553 -6.7832,-18.51953 22.26797,-2.475 45.66211,-10.93283 45.66211,-49.3418 0,-10.91799 -3.87903,-19.839 -10.29102,-26.841793 1.039,-2.518698 4.46253,-12.688605 -0.98047,-26.462891 0,0 -8.38567,-2.688087 -27.47266,10.25 -7.99099,-2.215698 -16.55279,-3.327134 -25.05078,-3.365234 -8.49899,0.0381 -17.05425,1.149536 -25.03125,3.365234 -19.110078,-12.938087 -27.507809,-10.25 -27.507809,-10.25 -5.429995,13.774286 -2.007049,23.944193 -0.96875,26.462891 -6.396994,7.002793 -10.302735,15.923803 -10.302735,26.841793 0,38.31697 23.349069,46.89288 45.560544,49.42188 -2.85999,2.497 -5.45161,6.9071 -6.34961,13.37109 -5.706491,2.555 -20.180515,6.97549 -29.099606,-8.3125 0,0 -5.288288,-9.59969 -15.330078,-10.30469 0,0 -9.756684,-0.12886 -0.683594,6.07813 10e-7,0 6.554521,3.07382 11.103516,14.63281 0,0 5.869581,17.84782 33.689452,11.79883 0.043,8.35599 0.13672,16.23219 0.13672,18.61719 0,2.641 -1.83474,5.73654 -6.832031,4.81054 C 56.653358,211.66764 28,174.18491 28,130.00195 28,74.771808 72.780108,30 128.00195,30 Z M 64.019531,170.77734 c 0.178559,0.0269 0.363997,0.0822 0.544922,0.16797 0.726999,0.326 1.140372,1.00982 0.888672,1.50781 -0.2203,0.497 -1.000791,0.64569 -1.712891,0.30469 -0.725299,-0.326 -1.133637,-1.00395 -0.898437,-1.50195 0.161475,-0.384 0.642057,-0.55928 1.177734,-0.47852 z m 4.453125,3.3125 c 0.49252,-0.0956 1.125413,0.15108 1.617188,0.67383 0.654099,0.706 0.781602,1.63113 0.283203,2.07813 -0.4769,0.443 -1.41037,0.23806 -2.042969,-0.46094 -0.654099,-0.697 -0.776568,-1.62913 -0.292969,-2.07813 0.12295,-0.1105 0.271374,-0.18103 0.435547,-0.21289 z m 3.576172,4.94922 c 0.568996,-0.0308 1.242191,0.35143 1.712891,1.01367 0.610999,0.904 0.612227,1.9693 -0.01367,2.4043 -0.6127,0.426 -1.615076,0.0287 -2.234375,-0.86133 -0.6128,-0.889 -0.612328,-1.95481 0.01367,-2.38281 0.15525,-0.10675 0.331819,-0.16358 0.521484,-0.17383 z m 5.447266,6.64258 c 0.470512,0.0693 0.979606,0.31561 1.410156,0.72461 0.867699,0.804 1.133328,1.95864 0.548828,2.55664 -0.548099,0.604 -1.715813,0.44023 -2.570312,-0.38477 -0.8743,-0.80599 -1.118159,-1.94968 -0.56836,-2.55468 0.2774,-0.303 0.709176,-0.41105 1.179688,-0.3418 z m 6.857422,3.29102 c 0.269999,0.003 0.554594,0.0477 0.839843,0.13672 1.129399,0.34099 1.871819,1.25087 1.636719,2.04687 -0.2418,0.784 -1.365348,1.14159 -2.498047,0.80859 -1.130999,-0.343 -1.871078,-1.26073 -1.642578,-2.05273 0.1764,-0.591 0.854063,-0.94836 1.664063,-0.93945 z m 8.707031,1.6582 c 1.188999,-0.023 2.164062,0.63898 2.164062,1.45898 0.0281,0.824 -0.932095,1.50649 -2.121093,1.52149 -1.195599,0.027 -2.162482,-0.64017 -2.175782,-1.45117 0,-0.833 0.937214,-1.5093 2.132813,-1.5293 z m 8.869143,0.0156 c 0.80367,0.088 1.42851,0.51346 1.54101,1.12696 0.143,0.804 -0.68423,1.62961 -1.86523,1.84961 -1.161,0.212 -2.235514,-0.28404 -2.382814,-1.08203 -0.1441,-0.825 0.69647,-1.65124 1.855464,-1.86524 0.29575,-0.0513 0.58368,-0.0586 0.85157,-0.0293 z" />
</svg>