<?xml version="1.0" encoding="UTF-8"?>
<svg width="256" height="256" viewBox="0 0 7.68 7.68" xmlns="http://www.w3.org/2000/svg">
  <title>Globe</title>
  <path
    fill="#0d1721"
    d="M 0,0 V 7.68 H 7.68 V 0 Z m 3.84,0.84 c 1.6544074,0 3,1.3455926 3,3 0,1.6544074 -1.3455926,3 -3,3 -1.6544074,0 -3,-1.3455926 -3,-3 0,-1.6544074 1.3455926,-3 3,-3 z m 0,0.4185937 c -0.01132,0 -0.022465,6.759e-4 -0.03375,8.204e-4 -0.2677984,0.3499695 -0.48215,0.7445042 -0.6314063,1.1683593 0.21191,0.05635 0.4346569,0.08666 0.6651563,0.08666 0.2336812,0 0.4596058,-0.031351 0.6744141,-0.089297 C 4.3682874,2.0026282 4.1571697,1.6105013 3.8936133,1.2599414 3.8757201,1.2595775 3.8579821,1.2585937 3.84,1.2585937 Z M 3.2485547,1.3271484 C 2.8361693,1.4234619 2.4623722,1.6181491 2.152793,1.8854883 2.3408375,2.0480006 2.5517932,2.1836633 2.7805664,2.2869727 2.9001212,1.9478293 3.0578614,1.6258903 3.2485547,1.3271484 Z m 1.201582,0.00434 C 4.6365092,1.6280448 4.7910502,1.9468025 4.9078711,2.2832227 5.1338369,2.1803226 5.3421129,2.0459675 5.5272656,1.8854883 5.222352,1.622169 4.8551667,1.4292717 4.4501367,1.3314844 Z M 1.8588281,2.1835547 C 1.5260021,2.5814571 1.3116147,3.0815389 1.2677344,3.6307031 H 2.5193555 C 2.5337557,3.3092827 2.5810703,2.9945236 2.6582812,2.6905078 2.3645722,2.5642075 2.0955713,2.39175 1.8588281,2.1835547 Z m 3.9629297,6.445e-4 C 5.5870727,2.3911762 5.3197667,2.5625308 5.0279297,2.688457 5.1032781,2.992147 5.1490918,3.3072664 5.1616992,3.6307031 H 6.4122656 C 6.3684099,3.0818464 6.1542655,2.5819932 5.8217578,2.1841992 Z M 4.6306641,2.8270313 C 4.3785734,2.8957521 4.1135834,2.9330273 3.84,2.9330273 c -0.2714217,0 -0.5341172,-0.036716 -0.7841016,-0.1044726 -0.063716,0.2599629 -0.1036891,0.528318 -0.1171875,0.8021484 H 4.7429883 C 4.731226,3.3550956 4.6924872,3.0865887 4.6306641,2.8270313 Z M 1.2677344,4.0492969 C 1.3115901,4.5981537 1.5257345,5.0980068 1.8582422,5.4958008 2.0943885,5.2875352 2.3635063,5.115229 2.6574609,4.989082 2.5798153,4.6827339 2.533146,4.3679412 2.5191797,4.0492969 Z m 1.6708008,0 C 2.9516422,4.3209635 2.9905432,4.5895061 3.0545508,4.8514453 3.3050725,4.7836433 3.5683159,4.7469727 3.84,4.7469727 c 0.269416,0 0.5302671,0.036098 0.7785937,0.1028906 C 4.683705,4.5905686 4.7246093,4.3226349 4.739707,4.0492969 Z m 2.2205273,0 C 5.1429605,4.3699903 5.0945319,4.684032 5.015918,4.9870898 5.3118644,5.1136165 5.5828807,5.2868887 5.8211719,5.4964453 6.1539979,5.0985429 6.3683853,4.5984611 6.4122656,4.0492969 Z M 3.84,5.1655664 c -0.2305324,0 -0.4535869,0.030331 -0.6658008,0.086777 0.1463871,0.4159399 0.3570123,0.8094878 0.6281836,1.164668 a 0.20930233,0.20930233 0 0 1 0.00146,0.00352 c 0.012085,1.658e-4 0.024027,8.789e-4 0.036152,8.789e-4 0.00576,0 0.011419,-3.727e-4 0.017168,-4.101e-4 a 0.20930233,0.20930233 0 0 1 0.00135,-0.00504 C 4.1287378,6.0672418 4.3449873,5.673143 4.4967773,5.2497656 4.2874017,5.1948582 4.0674305,5.1655664 3.84,5.1655664 Z M 4.8914063,5.3893359 C 4.7688176,5.7315751 4.6079295,6.0565421 4.4128125,6.3571289 4.8325641,6.2623814 5.2129727,6.0658708 5.527207,5.7945117 5.336955,5.6300917 5.1232858,5.4930851 4.8914063,5.3893359 Z m -2.1113086,0.00375 C 2.5510468,5.4964433 2.3400704,5.6321401 2.1527344,5.7945117 2.4619983,6.0615878 2.8353738,6.2561371 3.2472656,6.3525586 3.0543535,6.0506926 2.8983438,5.7284841 2.7800977,5.3930859 Z" />
</svg>