<?xml version="1.0" encoding="UTF-8"?>
<svg width="256" height="256" viewBox="-52.5 0 115.52 115.52" xmlns="http://www.w3.org/2000/svg">
  <title>HTML-5</title>
  <path
    fill="#0d1721"
    d="M -52.5,0 V 115.52 H 63.02 V 0 Z m 31.739973,12.635 h 4.06742 v 4.018945 h 3.721049 V 12.635 h 4.0674198 v 12.17053 h -4.0674198 v -4.075352 h -3.721049 v 4.075352 h -4.06742 z m 13.6247536,0 H 4.0966211 v 4.035691 H 0.51394287 V 24.80553 H -3.5543579 v -8.134839 h -3.5809155 z m 13.0139795,0 h 4.2419259 l 2.608789,4.276299 2.607027,-4.276299 h 4.242807 v 12.17053 h -4.050673 v -6.032825 l -2.799161,4.327417 h -0.06963 L 9.8588721,18.772705 v 6.032825 h -3.980166 z m 15.7250049,0 h 4.069182 v 8.147178 h 5.719946 V 24.80553 H 21.603711 Z M -26.709124,30.37124 H 37.229124 L 31.404297,95.626221 5.2212207,102.885 -20.890466,95.635916 Z m 11.897312,13.34096 c 0.720983,8.068327 1.439728,16.136879 2.159302,24.205332 h 27.741299 l -0.92894,10.381394 -8.9351029,2.412248 -8.9148315,-2.40696 -0.5693506,-6.383601 h -8.035247 l 1.121075,12.568017 16.3965914,4.55128 c 5.4731096,-1.516209 10.9458056,-3.034 16.4186256,-4.55128 0.735377,-8.191559 1.454595,-16.384587 2.1972,-24.575498 H -5.3320361 L -6.0635547,51.716599 H 24.566802 c 0.264838,-2.980047 0.300207,-3.328844 0.716535,-8.004399 z" />
</svg>