<?xml version="1.0" encoding="UTF-8"?>
<svg width="256" height="256" viewBox="0 0 256 256" xmlns="http://www.w3.org/2000/svg">
  <title>JavaScript</title>
  <path
    fill="#0d1721"
    d="M 0,0 V 256 H 256 V 0 Z m 179.12305,57.023438 c 18.12577,0 31.15987,6.316318 40.52734,22.8125 l -22.19922,14.255859 c -4.88877,-8.757121 -10.18135,-12.21875 -18.32812,-12.21875 -8.3506,0 -13.64453,5.295066 -13.64453,12.21875 0,8.553263 5.29472,12.016033 17.51367,17.312503 l 7.12695,3.05273 C 214.35439,124.84492 228,135.43416 228,159.26172 c 0,25.66334 -20.16131,39.71484 -47.24805,39.71484 -26.47518,0 -43.58222,-12.62763 -51.93164,-29.125 l 23.21289,-13.43945 c 6.11185,9.98019 14.05623,17.31055 28.10742,17.31055 11.81481,0 19.34766,-5.906 19.34766,-14.05274 0,-9.77517 -7.7391,-13.23885 -20.77344,-18.93945 l -7.125,-3.05664 c -20.57074,-8.75592 -34.21679,-19.75351 -34.21679,-42.970705 0,-21.384941 16.29167,-37.679687 41.75,-37.679687 z M 84.820312,58.65625 h 28.513668 v 97.3457 c 0,29.5305 -17.31074,42.97266 -42.566402,42.97266 C 47.961113,198.97461 34.720956,187.1632 28,172.9082 l 23.216797,-14.05078 c 4.479175,7.94173 8.554383,14.66211 18.328125,14.66211 9.368651,0 15.27539,-3.66683 15.27539,-17.92187 z" />
</svg>