<?xml version="1.0" encoding="UTF-8"?>
<svg width="256" height="256" viewBox="0 0 39.9 39.9" xmlns="http://www.w3.org/2000/svg">
  <title>LinkedIn</title>
  <path
    fill="#0d1721"
    d="M 0,0 V 39.9 H 39.9 V 0 Z M 8.9000391,5.5017188 C 10.600037,5.5017188 12.3,6.6350161 12.3,8.9016797 12.300774,10.796286 10.793873,12.347588 8.9000391,12.401719 7.006206,12.347589 5.4991873,10.796286 5.4999609,8.9016797 c 0,-2.2666636 1.7000797,-3.3999609 3.4000782,-3.3999609 z M 26.471133,14.500664 c 0.142243,-0.0046 0.285344,-0.0042 0.428906,0.0011 5.999994,0 7.099922,3.899966 7.099922,9.099961 v 10.400039 h -5.899922 v -9.3 c 0,-2.199998 -8.1e-5,-5.000039 -3.100078,-5.000039 -3.099997,0 -3.499922,2.40008 -3.499922,4.900078 v 9.399961 H 15.6 V 15.001758 h 5.600039 V 17.60168 H 21.3 c 1.075982,-1.867027 3.037484,-3.032359 5.171133,-3.101016 z M 5.9000391,15.001758 H 11.900039 V 34.001719 H 5.9000391 Z" />
</svg>