<?xml version="1.0" encoding="UTF-8"?>
<svg width="256" height="256" viewBox="0 0 20.48 20.48" xmlns="http://www.w3.org/2000/svg">
  <title>Location</title>
  <path
    fill="#0d1721"
    d="M 0,0 V 20.48 H 20.48 V 0 Z m 10.24,2.24 c 3.313497,0 6,2.6865033 6,6 0,1.3047487 -0.427751,2.502001 -1.13875,3.4825 -0.01275,0.0235 -0.01447,0.04969 -0.02922,0.07219 l -4,6 C 10.886531,18.072937 10.574,18.24 10.24,18.24 9.9060003,18.24 9.5934686,18.072937 9.4079688,17.794688 l -4,-6 C 5.3934688,11.772188 5.3915,11.746 5.37875,11.7225 4.6677507,10.742001 4.24,9.5447487 4.24,8.24 c 0,-3.3134967 2.6865033,-6 6,-6 z m 0,4 c -1.1044989,0 -2,0.8955011 -2,2 0,1.1044989 0.8955011,2 2,2 1.104499,0 2,-0.8955011 2,-2 0,-1.1044989 -0.895501,-2 -2,-2 z" />
</svg>