<?xml version="1.0" encoding="UTF-8"?>
<svg width="256" height="256" viewBox="0 0 163.84 163.84" xmlns="http://www.w3.org/2000/svg">
  <title>Mail</title>
  <path
    fill="#0d1721"
    d="M 0,0 V 163.84 H 163.84 V 0 Z M 24.84,33.8 H 139 c 3.82,0 6.92,3.080254 6.92,6.9 v 6.92 l -60.36,52 c -1.939998,1.68 -5.340002,1.68 -7.28,0 l -60.36,-52 V 40.7 c 0,-3.819746 3.099504,-6.9 6.92,-6.9 z M 17.92,60.32 34.46,74.56 17.92,91.74 Z m 128,0 v 31.4 L 129.4,74.56 Z M 42.66,81.64 70.92,105.98 c 2.939997,2.5205 6.839754,3.92 11,3.92 4.160246,0 8.080003,-1.3995 11.02,-3.92 l 28.24,-24.34 24.74,25.68 v 15.8 c 0,3.82025 -3.1,6.92 -6.92,6.92 H 24.84 c -3.820246,0 -6.92,-3.0995 -6.92,-6.92 v -15.8 z" />
</svg>