<?xml version="1.0" encoding="UTF-8"?>
<svg width="256" height="256" viewBox="0 0 81.92 81.92" xmlns="http://www.w3.org/2000/svg">
  <title>Mendix</title>
  <path
    fill="#0d1721"
    d="M 0,0 V 81.92 H 81.92 V 0 Z m 9.80375,25.4075 h 7.801875 v 1.36125 c 1.433599,-0.8231 3.340991,-1.36125 5.85125,-1.36125 2.863296,0 4.8141,1.168447 6.04875,2.726875 C 30.993837,26.601303 33.384594,25.4075 37.11,25.4075 c 5.724641,0 7.801875,4.667463 7.801875,7.801875 V 57.1025 L 53.5275,41.910625 44.911875,25.4075 H 54.015 l 5.584375,11.94625 5.7925,-11.94625 h 8.7775 L 66.041875,41.83625 74.13,58.565625 H 65.228125 L 59.48625,46.8625 53.525625,58.565625 H 37.11 v -24.38125 c 0,-1.614992 -1.310632,-2.925625 -2.925625,-2.925625 -1.614992,0 -2.925625,1.310633 -2.925625,2.925625 v 24.38125 h -7.801875 v -24.38125 c 0,-1.614992 -1.310633,-2.925625 -2.925625,-2.925625 -1.614992,0 -2.925625,1.310633 -2.925625,2.925625 v 24.38125 H 9.80375 Z" />
</svg>