<?xml version="1.0" encoding="UTF-8"?>
<svg width="256" height="256" viewBox="0 0 327.68 327.68" xmlns="http://www.w3.org/2000/svg">
  <title>MongoDB</title>
  <path
    fill="#0d1721"
    d="M 0,0 V 327.68 H 327.68 V 0 Z m 162.6125,35.84 c 0.11674,0.271005 0.2175,0.551566 0.28,0.71 0,0 3.80262,9.380824 7.555,14.655 3.43135,7.475572 35.29646,27.041455 48.78,86.55 a 144.70435,144.70435 0 0 1 2.1075,23.665 c 0.24599,47.55514 -24.85115,77.38187 -38.81,90.2775 l -0.3,0.2725 a 85.254116,85.254116 0 0 1 -8.3825,6.8575 l -0.4175,0.27 a 302.97565,302.97565 0 0 0 -5.42,32.7425 h -5.145 c -1.43424,-15.5682 -3.4783,-30.26064 -3.52,-30.5775 v 0.045 l -0.745,-0.53 c -6.56665,-4.79054 -55.12358,-42.36336 -52.1175,-105.42 C 109.70038,87.747987 149.31844,54.507159 157.04,48.47 c 4.9865,-5.320039 5.18476,-7.355824 5.5725,-12.63 z m 2.62,100.915 c -2.91852,-0.0167 -2.92,88.4225 -2.92,88.4225 0,6.87936 4.08993,25.16469 8.1425,25.6525 0,0 -2.94606,-114.075 -5.2225,-114.075 z" />
</svg>