<?xml version="1.0" encoding="UTF-8"?>
<svg width="256" height="256" viewBox="0 0 7.68 7.68" xmlns="http://www.w3.org/2000/svg">
  <title>Phone</title>
  <path
    fill="#0d1721"
    d="M 0,0 V 7.68 H 7.68 V 0 Z m 4.1729297,0.84017578 c 0.015138,-6.2228e-4 0.030527,2.9896e-4 0.046055,0.002812 0.00769,0.001473 0.032468,0.006079 0.04541,0.008965 0.025944,0.005775 0.062085,0.0146403 0.107168,0.0277734 0.090167,0.0262602 0.2161547,0.0695619 0.3673242,0.13886712 0.3026732,0.1387625 0.7053951,0.3814889 1.1233594,0.7994532 0.4179642,0.4179642 0.6607089,0.8207508 0.7994531,1.1234179 0.069327,0.1511756 0.1126191,0.2771047 0.1388672,0.3672657 0.013124,0.045087 0.022001,0.081248 0.027773,0.1071679 0.00289,0.012963 0.00505,0.023366 0.0065,0.031055 l 0.00176,0.00949 C 6.8566826,3.5806528 6.7732071,3.7029355 6.6489844,3.7230469 6.5251262,3.7430975 6.4084295,3.6592206 6.387832,3.5356055 6.3871941,3.5322655 6.385412,3.5233955 6.383552,3.5149805 6.379782,3.4981505 6.373313,3.4714615 6.363044,3.4361715 6.3424798,3.3655907 6.3068012,3.2606876 6.2475,3.1313672 6.1290798,2.8730454 5.9161097,2.5163154 5.5400391,2.1402539 5.1639988,1.7641954 4.8073032,1.5512222 4.5489844,1.432793 4.4196579,1.3735039 4.3147236,1.3378071 4.2441211,1.3172461 4.2088502,1.3069686 4.1645061,1.2967927 4.1476758,1.2930469 4.0240303,1.2724403 3.9371955,1.1552314 3.9572461,1.0313672 3.9748435,0.92267499 4.0669608,0.84453178 4.1729297,0.84017578 Z M 1.9474219,1.3716797 c 0.1962422,-0.0025 0.3950276,0.091923 0.5254101,0.2763281 L 2.855918,2.1898242 C 3.0431968,2.4546959 3.0229383,2.8174909 2.808281,3.0434766 l -0.087129,0.091758 c 0,0 -0.3288866,0.3462162 0.5688282,1.2913476 C 4.1877013,5.3717256 4.516582,5.0254687 4.516582,5.0254687 L 4.6549805,4.8798047 C 4.8462512,4.6784175 5.1444211,4.6370394 5.3891602,4.7779102 L 5.9695313,5.1120117 C 6.3422601,5.3265533 6.4244362,5.8523401 6.133125,6.1590234 L 5.7015234,6.6133594 C 5.5917919,6.7288935 5.4556201,6.8133453 5.299043,6.8288086 4.8040054,6.8776592 3.5934682,6.8236681 2.3033203,5.4653906 1.0867187,4.1845207 0.86867638,3.0867179 0.84128906,2.5764844 0.83058325,2.3770445 0.91891197,2.1972637 1.0506445,2.0585742 L 1.5274805,1.556543 C 1.6437127,1.4341729 1.794789,1.3736205 1.9474219,1.3716797 Z M 4.239668,1.9140234 c 0.02241,-5.212e-4 0.045281,0.00231 0.067969,0.00879 l 4.688e-4,1.172e-4 4.687e-4,1.172e-4 9.961e-4,2.929e-4 0.00234,7.032e-4 0.00604,0.00188 c 0.00456,0.00146 0.010304,0.00338 0.017109,0.0058 0.013641,0.00484 0.031673,0.011732 0.053789,0.021211 0.044263,0.018969 0.1047536,0.048264 0.1790625,0.092226 0.1486783,0.088004 0.3516754,0.2342041 0.5901562,0.4726758 0.2384808,0.2384748 0.3846071,0.4414566 0.4726172,0.5901563 0.043959,0.074281 0.073239,0.1347437 0.092227,0.1790039 0.00948,0.022116 0.01638,0.040146 0.021211,0.053789 0.00243,0.00682 0.00431,0.012528 0.0058,0.017109 l 0.00188,0.00604 7.031e-4,0.00234 2.93e-4,9.961e-4 1.172e-4,4.688e-4 c 0,0 1.337e-4,4.525e-4 -0.2189649,0.063047 l 0.219135,-0.062584 C 5.7876581,3.4891965 5.7175541,3.6152912 5.596582,3.6498633 5.4766125,3.6841316 5.3515599,3.6155746 5.3157422,3.4964648 l -0.00111,-0.00328 c -0.00161,-0.00457 -0.00493,-0.013536 -0.010547,-0.02666 C 5.2928415,3.4402936 5.272478,3.3973712 5.2385742,3.3400781 5.1708274,3.2256256 5.0484589,3.052685 4.8358008,2.8400391 4.6231731,2.6273962 4.4502021,2.5050619 4.3357617,2.4373242 4.2784656,2.4034144 4.2355645,2.3829983 4.2093164,2.3717578 c -0.013124,-0.00562 -0.022103,-0.00899 -0.02666,-0.010606 l -0.00328,-0.00111 C 4.0602865,2.3242274 3.9917082,2.1992243 4.0259766,2.0792578 4.0540664,1.9809483 4.1425588,1.916282 4.239668,1.9140234 Z" />
</svg>