<?xml version="1.0" encoding="UTF-8"?>
<svg width="256" height="256" viewBox="0 0 256 256" xmlns="http://www.w3.org/2000/svg">
  <title>Python</title>
  <path
    fill="#0d1721"
    d="M 0,0 V 256 H 256 V 0 Z m 127.2793,29 c 53.05894,0 48.95898,26.546875 48.95898,26.546875 v 43.865234 c 0,26.529671 -26.99805,26.093751 -26.99805,26.093751 h -48.05468 c -28.816974,0 -27.9043,28.35742 -27.9043,28.35742 v 23.77344 H 56.357422 C 56.357422,177.63672 28,179.45261 28,128.22266 28,76.993307 60.490234,80.677734 60.490234,80.677734 H 128.18555 V 73.828125 H 79.734375 L 79.677734,51.017578 C 79.677734,51.017578 76.506948,29 127.2793,29 Z m -26.7168,15.339844 c -4.820395,0 -8.716797,3.894348 -8.716797,8.714844 0,4.820495 3.896402,8.716796 8.716797,8.716796 4.821,0 8.7168,-3.896301 8.7168,-8.716796 0,-4.820496 -3.8958,-8.714844 -8.7168,-8.714844 z m 82.15625,34.982422 h 16.92383 c 0,0 28.35742,-1.815687 28.35742,49.414064 0,51.22995 -32.48828,47.54492 -32.48828,47.54492 h -67.69727 v 6.84961 h 48.45117 l 0.0566,22.81055 c 0,0 3.17038,22.01562 -47.60157,22.01562 -53.059444,0 -48.960934,-26.54492 -48.960934,-26.54492 v -43.86523 c 0,-26.52998 27.000004,-26.09376 27.000004,-26.09376 h 48.05468 c 28.81697,0 27.9043,-28.35742 27.9043,-28.35742 z M 155.4375,195.18555 c -4.821,0 -8.7168,3.8958 -8.7168,8.71679 0,4.82 3.8958,8.7168 8.7168,8.7168 4.82,0 8.7168,-3.8968 8.7168,-8.7168 0,-4.82099 -3.8968,-8.71679 -8.7168,-8.71679 z" />
</svg>