<?xml version="1.0" encoding="UTF-8"?>
<svg width="256" height="256" viewBox="0 0 256 256" xmlns="http://www.w3.org/2000/svg">
  <title>Qlik</title>
  <path
    fill="#0d1721"
    d="M 0,0 V 256 H 256 V 0 Z m 128.13281,34 c 51.39971,0 93.13281,41.732703 93.13281,93.13672 0,18.25804 -5.36836,35.28981 -14.41992,49.71289 l 26.08399,21.9375 c 4.14054,3.37872 0.76498,7.51953 0.91992,7.51953 l -16.57031,19.64063 c -3.52938,4.14487 -7.67383,0.61523 -7.67383,0.61523 l -27.77149,-23.32422 c -15.18921,10.73877 -33.75591,17.03125 -53.70117,17.03125 C 76.733104,220.26953 35,178.53642 35,127.13672 35,75.732703 76.733104,34 128.13281,34 Z m 0,35.904297 c -31.605094,0 -57.232419,25.623018 -57.232419,57.232423 0,31.60509 25.627324,57.22851 57.232419,57.22851 31.60941,0 57.23242,-25.62342 57.23242,-57.22851 0,-31.609405 -25.62301,-57.232423 -57.23242,-57.232423 z m -0.15625,20.560547 c 20.25286,0 36.67188,16.419016 36.67188,36.671876 0,20.25285 -16.41902,36.67187 -36.67188,36.67187 -20.25285,0 -36.669919,-16.41902 -36.669919,-36.67187 0,-20.25286 16.417069,-36.671876 36.669919,-36.671876 z" />
</svg>