<?xml version="1.0" encoding="UTF-8"?>
<svg width="256" height="256" viewBox="0 0 256 256" xmlns="http://www.w3.org/2000/svg">
  <title>SAP</title>
  <path
    fill="#0d1721"
    d="M 0,0 V 256 H 256 V 0 Z m 62.035156,84.152344 h 0.04297 c 10.02182,0 22.220938,2.821944 31.058594,7.349609 l -9.517578,16.603517 c -9.708362,-4.71052 -14.55696,-5.11925 -20.085938,-5.44141 -8.210749,-0.45277 -12.337817,2.4986 -12.433594,5.66797 -0.04354,3.86593 7.801074,7.34881 15.19336,9.75195 11.153732,3.54378 25.388749,8.29844 27.574219,22.04688 L 114.32031,86.078125 h 23.75391 l 23.95312,64.710935 -0.0957,-64.710935 h 27.52148 c 26.21695,0 38.54688,8.880307 38.54688,29.246095 0,18.2761 -12.64349,29.21289 -34.09766,29.21289 h -8.8457 l -0.13086,24.30078 -41.6289,-0.043 -2.89844,-10.5625 c -4.31,1.45408 -9.16061,2.22852 -14.28906,2.22852 -5.3026,0 -10.29915,-0.82644 -14.6875,-2.30664 l -4.13672,10.64843 -23.220707,0.043 1.044922,-5.35351 c -0.35699,0.32216 -0.687933,0.59247 -1.044922,0.87109 -6.164592,4.98044 -14.010463,7.30437 -23.623047,7.47852 H 57.943359 C 47.468778,171.98111 37.1232,169.26525 28.015625,164.04102 l 8.472656,-16.82227 c 9.159817,5.4419 14.932366,6.61694 22.681641,6.48633 4.031364,-0.0958 6.931046,-0.82697 8.83789,-2.77735 1.140623,-1.17544 1.776778,-2.67362 1.820313,-4.31054 0.07836,-4.35353 -6.172913,-6.38168 -13.748047,-8.75 -6.164592,-1.90685 -13.200671,-4.52829 -18.642578,-8.56836 -6.478046,-4.71051 -9.612535,-10.70049 -9.429688,-19.12891 0.04354,-5.99045 2.403541,-11.703188 6.574219,-15.960936 6.033985,-6.260369 15.741083,-10.029296 27.44336,-10.029296 z M 185.01367,103.51758 v 22.14258 h 6.08594 c 8.01919,0 14.46289,-2.68283 14.46289,-11.20704 0,-8.25428 -6.4437,-10.93554 -14.46289,-10.93554 z m -58.87695,8.88086 -0.17383,0.0527 -8.66406,27.38281 c 2.586,1.00131 5.58063,1.54102 8.75,1.54102 3.13454,0 6.08628,-0.5476 8.61133,-1.45312 z" />
</svg>