<?xml version="1.0" encoding="UTF-8"?>
<svg width="256" height="256" viewBox="-8.78 0 22.4 22.4" xmlns="http://www.w3.org/2000/svg">
<title>SQL</title>
  <path
    fill="#0d1721"
    d="m -8.78,0 v 22.4 h 22.4 V 0 Z M 2.4719531,2.4505127 c 0.5902734,0.00358 1.1803614,0.025099 1.5030518,0.063061 1.7152968,0.2015236 3.1748928,0.6528004 4.0743896,1.2595215 0.3468878,0.2339735 0.7028043,0.608244 0.8233887,0.8659424 L 8.9761768,4.8600093 8.9584038,17.67517 8.8755178,17.843847 c -0.045642,0.09272 -0.1835542,0.275147 -0.3064209,0.405371 -0.7479478,0.792869 -2.3523256,1.379276 -4.4566895,1.629175 -0.4289145,0.05095 -2.2922745,0.09223 -2.7323242,0.0605 v -1.71e-4 C -0.25800135,19.820648 -1.8770539,19.408418 -2.86999,18.856422 -3.4355664,18.542023 -3.8664334,18.15558 -4.0355174,17.811207 L -4.1361768,17.606299 V 4.7523437 l 0.079639,-0.1616699 C -3.7007979,3.8684286 -2.5653919,3.2173326 -0.98053711,2.8266602 -0.44255315,2.694036 0.33409911,2.5620585 0.96770508,2.495459 1.2911992,2.4614467 1.8816798,2.4469377 2.4719531,2.4505127 Z M 2.1383594,3.4022461 C 1.5720311,3.4118867 1.0103683,3.444224 0.62402832,3.4964111 -0.554974,3.6557101 -1.5117868,3.9516525 -1.9372266,4.2885254 -2.7978485,4.970021 -1.8877563,5.7195655 0.22874023,6.0723633 1.1464443,6.2253372 2.3353974,6.2794076 3.3047412,6.2121582 4.363352,6.1387337 5.1569389,6.0000992 5.8552295,5.766626 6.550885,5.5340273 6.961816,5.252599 7.0537402,4.9458008 7.0891552,4.8275765 7.0864818,4.7826759 7.0369922,4.6530518 6.815056,4.0719304 5.5753739,3.6254818 3.6808887,3.444458 3.2756988,3.4057332 2.7046876,3.3926055 2.1383594,3.4022461 Z M 2.487334,9.9936279 c -0.8475121,0 -1.49850132,0.4945191 -1.70625002,1.2962651 -0.0714649,0.275772 -0.0709755,0.832985 8.545e-4,1.077514 0.18735131,0.637836 0.69762512,1.101011 1.33266602,1.20979 0.2148985,0.03681 0.2439915,0.05276 0.3905029,0.21294 0.087072,0.0952 0.265683,0.285243 0.3969971,0.42229 l 0.2387451,0.24917 h 0.6347168 c 0.3490801,0 0.6295666,-0.01348 0.6232666,-0.02991 -0.0063,-0.01642 -0.251145,-0.234613 -0.5441406,-0.484838 -0.2929956,-0.250226 -0.5454611,-0.466707 -0.5608887,-0.48108 -0.015424,-0.01437 0.038723,-0.06513 0.1203125,-0.112963 0.081587,-0.04783 0.2379697,-0.180869 0.3474365,-0.295655 0.3201229,-0.335678 0.471167,-0.75039 0.471167,-1.29353 0,-0.534696 -0.1630119,-0.966086 -0.4892822,-1.29541 C 3.4146071,10.136265 3.0371604,9.9936279 2.487334,9.9936279 Z m -3.1522217,0.018628 c -0.4513171,0 -0.5397289,0.01099 -0.7095703,0.07844 -0.4961093,0.196948 -0.7314506,0.53251 -0.7276856,1.037183 0.00352,0.472446 0.2526558,0.767109 0.8729493,1.032226 0.3659951,0.156429 0.51269528,0.27555 0.51269528,0.416309 0,0.299124 -0.49839008,0.335854 -1.02607418,0.07571 -0.1445116,-0.07124 -0.2742992,-0.13526 -0.2884766,-0.142358 -0.014175,-0.0071 -0.025806,0.197527 -0.025806,0.45476 0,0.465595 4.687e-4,0.467786 0.084766,0.499878 0.3174453,0.120695 1.01915009,0.174587 1.38103023,0.105957 v -1.71e-4 c 0.66544323,-0.126198 1.04316406,-0.513094 1.04316406,-1.068628 0,-0.492839 -0.24386988,-0.780033 -0.91789551,-1.080932 -0.38584251,-0.172249 -0.52551269,-0.280414 -0.52551269,-0.406738 0,-0.104699 0.13253693,-0.21932 0.28693848,-0.248145 0.15075394,-0.02815 0.55053204,0.04117 0.7866455,0.136548 l 0.19790039,0.07998 v -0.438012 -0.438184 l -0.21464843,-0.04768 c -0.13275667,-0.02945 -0.41180204,-0.04704 -0.73041993,-0.04614 z m 5.4130371,0.01572 v 3.505639 H 7.0166553 V 12.743042 H 5.8137012 V 10.027979 Z M 2.5645801,10.89375 c 0.2676324,0.02097 0.4297424,0.193283 0.5200439,0.545337 0.1265294,0.493299 -0.012586,1.017792 -0.3161621,1.191846 -0.1592664,0.09132 -0.3967973,0.101651 -0.5461914,0.02375 C 2.0694741,12.575018 2.0117,12.513096 1.9245654,12.335962 c -0.067297,-0.13681 -0.078883,-0.214626 -0.079639,-0.537988 -7.501e-4,-0.328573 0.00971,-0.399587 0.07998,-0.542261 0.114962,-0.233474 0.2734349,-0.343896 0.5185059,-0.361621 0.042642,-0.0031 0.082934,-0.0033 0.1211678,-3.42e-4 z" />
</svg>