<?xml version="1.0" encoding="UTF-8" standalone="no"?>
<!-- Generator: Adobe Illustrator 19.0.0, SVG Export Plug-In . SVG Version: 6.00 Build 0)  -->

<svg
   version="1.1"
   id="layer"
   x="0px"
   y="0px"
   viewBox="-153 -46 256 256"
   xml:space="preserve"
   sodipodi:docname="talend-logo-vector.svg"
   width="256"
   height="256"
   xmlns:inkscape="http://www.inkscape.org/namespaces/inkscape"
   xmlns:sodipodi="http://sodipodi.sourceforge.net/DTD/sodipodi-0.dtd"
   xmlns="http://www.w3.org/2000/svg"
   xmlns:svg="http://www.w3.org/2000/svg"><defs
   id="defs1" /><sodipodi:namedview
   id="namedview1"
   pagecolor="#505050"
   bordercolor="#eeeeee"
   borderopacity="1"
   inkscape:showpageshadow="0"
   inkscape:pageopacity="0"
   inkscape:pagecheckerboard="0"
   inkscape:deskcolor="#505050" />
<style
   type="text/css"
   id="style1">
	.st0{fill-rule:evenodd;clip-rule:evenodd;fill:#F17176;}
</style>
<path
   id="rect1"
   style="fill:#000000;fill-opacity:1"
   d="M -153,-46 V 210 H 103 V -46 Z M -49.083984,57.09375 c 0.200189,0 0.432621,0.09864 0.632812,0.298828 0.200191,0.20019 0.300781,0.535011 0.300781,0.96875 v 42.406252 c 0,0.73403 0.199229,1.30079 0.59961,1.70117 0.367016,0.40038 0.835461,0.66748 1.335937,0.76758 0.633937,0.13346 1.299658,0.23408 1.933594,0.30078 0.433746,0.0334 0.735519,0.13412 0.902344,0.26758 0.166831,0.13346 0.232588,0.43344 0.199218,0.86719 0,0.30028 -0.06543,0.60026 -0.265624,0.86718 -0.166826,0.26692 -0.467131,0.4336 -0.800782,0.4336 h -24.023437 c -1.201143,0 -8.342468,0.43439 -9.410157,-0.13282 -1.067678,-0.56721 -1.201171,-1.46875 -1.201171,-1.46875 0,0 -0.132813,-1.13331 -0.132813,-1.83398 v -0.10156 c -1.334609,1.40133 -2.969286,2.46909 -4.871094,3.20312 -1.901808,0.73403 -4.002813,1.10156 -6.238281,1.10156 -1.434698,0 -2.869989,-0.33318 -4.304687,-0.90039 -1.434699,-0.56721 -2.70249,-1.53502 -3.636719,-2.76953 -0.967579,-1.26787 -1.46875,-2.83647 -1.46875,-4.738279 0,-2.569117 1.001998,-4.670289 3.003906,-6.205078 2.001908,-1.568168 4.40404,-2.703627 7.273438,-3.404297 2.836027,-0.700659 6.072354,-1.267746 9.675781,-1.634765 v -5.205079 c 0,-1.868438 -0.36721,-3.168471 -1.167969,-3.86914 -0.767399,-0.700669 -1.969108,-1.06836 -3.503906,-1.06836 -1.734978,10e-7 -2.936707,0.233081 -3.503906,0.5 -0.13346,0.06673 -0.233561,0.101269 -0.400391,0.167969 -3.203047,1.401329 -4.469721,4.102768 -4.269531,6.671875 v 0.201172 c 0.10009,1.234539 -0.868506,1.434241 -1.802735,1.300781 -0.867489,-0.200189 -1.666842,-0.534353 -2.300781,-1.101562 -0.967589,-0.834119 -1.435547,-1.901886 -1.435547,-3.203125 0,-1.668248 0.800816,-3.068716 2.402344,-4.203125 1.601518,-1.134419 3.570702,-1.968104 5.90625,-2.501953 2.335558,-0.53384 4.57135,-0.800782 6.773438,-0.800782 3.102956,0 5.704966,0.365581 7.740234,1.09961 2.035268,0.767399 3.536318,1.802277 4.503906,3.103516 1.000952,1.334598 1.46875,2.835324 1.46875,4.570312 v 16.984375 c 0,0.834125 0.09848,1.501145 0.332031,2.068355 0.233556,0.53384 3.037653,1.30079 5.339844,1.30079 2.268826,0 5.738281,-0.76695 5.738281,-1.30079 l 0.0332,-37.769527 c 0,-0.967579 -0.199229,-1.735849 -0.59961,-2.236328 -0.400381,-0.500469 -0.901705,-0.83318 -1.435547,-1 -0.567206,-0.16683 -1.267273,-0.300301 -2.134765,-0.400391 -0.734033,-0.133489 -1.101077,-0.201172 -1.201172,-0.201172 -0.233556,-0.06673 -0.4349,-0.233403 -0.56836,-0.433593 -0.13346,-0.20019 -0.199218,-0.466965 -0.199218,-0.833985 0,-0.300279 0.06576,-0.600101 0.199218,-0.90039 0.13346,-0.33365 0.334967,-0.4666 0.535157,-0.5 4.537652,-0.26692 9.208936,-0.433594 14.046875,-0.433594 z m 115.876953,0.0332 h 2.601562 c 0.233556,0 0.434575,0.09864 0.634766,0.298828 0.200191,0.20019 0.298828,0.535001 0.298828,0.96875 V 100.5 c 0,0.83413 0.168141,1.4686 0.535156,1.90234 0.333651,0.43375 0.767264,0.70053 1.234375,0.83399 0.467111,0.13346 1.066911,0.23389 1.767578,0.33398 0.467112,0.0334 0.766931,0.13412 0.900391,0.26758 C 74.932451,103.97135 75,104.27117 75,104.73828 c 0,0.26692 -0.10059,0.56707 -0.300781,0.83399 -0.200191,0.30028 -0.467293,0.43359 -0.767578,0.43359 H 63.054688 c -0.800763,0 -1.367522,-0.13364 -1.701172,-0.36719 -0.333651,-0.23356 -0.566083,-0.59962 -0.632813,-1 -0.06673,-0.43375 -0.06836,-1.10077 -0.06836,-2.06836 -1.000953,1.40133 -2.502325,2.4691 -4.4375,3.20313 -1.868445,0.73403 -3.869027,1.09961 -5.904297,1.09961 -3.169684,0.0334 -5.872609,-0.73295 -7.974609,-2.23438 -2.102001,-1.50144 -3.637882,-3.50379 -4.605469,-5.939451 -0.967588,-2.469008 -1.433594,-5.204008 -1.433594,-8.240235 0,-2.936127 0.599477,-5.6402 1.833984,-8.142578 1.201143,-2.502377 3.037168,-4.504264 5.439453,-6.039062 2.435652,-1.534789 5.371829,-2.300781 8.841797,-2.300782 1.801716,0 3.302602,0.133305 4.53711,0.433594 1.234509,0.26692 2.53649,0.83384 3.871093,1.667969 l -0.30078,-12.044922 c 0,-1.367969 -0.533717,-2.368504 -1.634765,-2.902344 -1.101048,-0.533839 -2.669646,-0.901696 -4.738282,-1.035156 -0.233555,-0.10009 -0.432945,-0.233404 -0.566406,-0.433594 -0.13346,-0.200189 -0.201172,-0.467131 -0.201172,-0.800781 0,-0.30028 0.06771,-0.600101 0.201172,-0.90039 0.166826,-0.30028 0.333012,-0.468594 0.533203,-0.501954 3.269779,-0.200189 7.508099,-0.332031 12.679688,-0.332031 z m -178.787109,7.822266 c 0.15171,-0.04379 0.32377,-0.04915 0.51562,0.01758 0.43375,0.16682 0.66797,0.433761 0.66797,0.800781 v 8.808594 h 6.97266 c 0.23356,0.0334 0.43506,0.166998 0.53516,0.367187 0.13346,0.20019 0.19921,0.467456 0.19921,0.734375 0,0.6673 -0.0986,1.201026 -0.29882,1.634766 -0.20019,0.43375 -0.40121,0.667969 -0.63477,0.667969 h -6.77344 v 18.15039 c 0,1.801719 0.10075,3.135927 0.26758,4.103522 0.16682,0.93421 0.46665,1.56852 0.90039,1.93554 0.40039,0.33365 1.00018,0.5332 1.76758,0.5332 0.70066,0 1.50312,-0.13347 2.4707,-0.40039 0.93423,-0.26692 1.80081,-0.60157 2.60157,-1.00195 0.13346,-0.0667 0.29964,0.0669 0.5332,0.36719 0.20019,0.26692 0.4017,0.60173 0.53515,0.96875 0.13346,0.36701 0.13346,0.59928 0,0.66601 -0.53383,0.56721 -1.33449,1.13592 -2.43554,1.70313 -1.10105,0.56721 -2.26923,1.00018 -3.53711,1.36719 -1.26787,0.36702 -2.33515,0.5332 -3.30274,0.5332 -3.03621,0 -5.43851,-0.5998 -7.24023,-1.76758 -1.80171,-1.16778 -2.70312,-3.26895 -2.70312,-6.205077 V 78.013672 h -3.36915 c -0.20019,-0.0334 -0.40169,-0.168304 -0.53515,-0.501953 -0.0334,-0.10009 -0.0662,-0.198895 -0.0996,-0.265625 -0.26692,-1.101049 0.80078,-1.369141 0.80078,-1.369141 5.13822,-1.601518 9.308,-5.370559 11.44336,-10.308594 0,0 0.26363,-0.487766 0.71875,-0.61914 z M 19.679688,73.9082 c 3.102952,0 5.573123,0.667345 7.408203,2.001953 1.83508,1.334599 2.736328,3.804777 2.736328,7.408203 v 17.082034 c 0,1.16777 0.299819,1.93572 0.90039,2.30273 0.600573,0.36701 1.200048,0.56804 1.833985,0.63477 l 1.269531,0.13281 c 0.367016,0.0334 0.633956,0.13396 0.800781,0.30078 0.166826,0.16683 0.232422,0.43344 0.232422,0.86719 0,0.30028 -0.10059,0.60027 -0.300781,0.86719 -0.166825,0.26692 -0.467131,0.43359 -0.800781,0.43359 H 16.810547 c -0.333652,0 -0.633957,-0.16667 -0.800781,-0.43359 -0.200191,-0.26692 -0.265464,-0.56691 -0.298828,-0.86719 0,-0.36702 0.06576,-0.66716 0.199218,-0.83398 0.133461,-0.16683 0.400401,-0.30063 0.800782,-0.33399 0.734032,-0.0667 1.43426,-0.30095 2.101562,-0.66797 0.633936,-0.36701 0.935547,-0.79997 0.935547,-1.36718 V 83.517578 c 0,-0.734029 -0.06771,-1.467142 -0.201172,-2.201172 -0.13346,-0.633939 -0.465997,-1.235692 -1.033203,-1.769531 -0.567207,-0.533849 -1.402697,-0.800781 -2.53711,-0.800781 -1.067682,0 -2.168321,0.201183 -3.302734,0.601562 -1.134414,0.40039 -2.169293,0.934587 -3.1035155,1.535156 -0.9342221,0.60057 -1.6673304,1.200202 -2.2011719,1.800782 v 17.749996 c 0,0.83413 0.1665112,1.46861 0.4667969,1.90235 0.3002857,0.43375 0.6676551,0.70036 1.1347656,0.86718 0.4337466,0.13346 1.0005059,0.23406 1.7011719,0.30079 0.467112,0.0334 0.76693,0.13411 0.900391,0.26757 0.166824,0.13346 0.234375,0.43329 0.234375,0.9004 0,0.26691 -0.100591,0.56706 -0.300782,0.83398 -0.200189,0.30028 -0.467292,0.43359 -0.767578,0.43359 H -5.84375 c -0.2669207,0.0667 -0.5675502,-0.1001 -0.734375,-0.40039 -0.1668258,-0.26692 -0.265625,-0.5669 -0.265625,-0.86718 0,-0.36702 0.065759,-0.6338 0.1992188,-0.83399 0.1668258,-0.20019 0.4336037,-0.30061 0.8339843,-0.33398 2.2354608,-0.26692 3.3359375,-0.93411 3.3359375,-2.03516 V 81.382812 c 0,-0.967589 -0.1661865,-1.702645 -0.5332031,-2.203124 -0.3670156,-0.50048 -0.7672635,-0.833181 -1.234375,-1 -0.4671115,-0.16683 -1.1019052,-0.300291 -1.8359375,-0.400391 -0.6005714,-0.10009 -0.9663114,-0.132489 -1.0664062,-0.199219 -0.2335558,-0.10009 -0.4348986,-0.235357 -0.5683594,-0.435547 -0.1334599,-0.20019 -0.1992188,-0.466964 -0.1992188,-0.833984 0,-0.30029 0.065759,-0.600101 0.1992188,-0.900391 0.1334608,-0.300289 0.3348036,-0.46663 0.5683594,-0.5 4.938032,-0.300279 9.375258,-0.433594 13.3457031,-0.433594 0.2001908,0 0.3994196,0.0988 0.5996093,0.265626 0.2001908,0.200189 0.3006195,0.535 0.3339844,0.96875 v 3.537109 c 0.4671106,-0.56721 1.3685224,-1.26923 2.703125,-2.136719 1.3346034,-0.834129 2.8703224,-1.600436 4.6386714,-2.234375 1.768351,-0.633939 3.501506,-0.96875 5.203126,-0.96875 z m -44.074219,0.06836 c 4.671112,0 8.141168,0.899297 10.443359,2.734376 2.302192,1.835078 3.737319,4.471116 4.3378908,8.007812 0.2001907,1.134409 0.2656249,2.86952 0.265625,5.205078 l -21.9199218,0.0332 c 0,3.069587 0.466006,5.539598 1.433594,7.441407 0.934222,1.901818 2.168654,3.236177 3.636718,4.070317 1.434699,0.80075 3.036987,1.23436 4.671875,1.23436 1.935175,0 3.569855,-0.26708 4.871094,-0.76757 1.301238,-0.50048 2.469913,-1.33418 3.4375,-2.501951 0.06673,-0.0667 0.09929,-0.134442 0.166016,-0.201172 0.06673,-0.1001 0.16732,-0.199052 0.300781,-0.232422 0.100095,-0.0334 0.233889,-0.0665 0.333984,-0.0332 l 1.400391,0.666015 c 0.200191,0.0667 0.333984,0.200368 0.333984,0.367188 0,0.133462 -0.06576,0.301602 -0.199218,0.535162 -1.134413,1.96853 -2.803765,3.53551 -5.00586,4.66992 -2.168731,1.13442 -4.871171,1.70117 -8.074219,1.70117 -6.072445,0 -10.610585,-1.43318 -13.580078,-4.33594 -2.969493,-2.869397 -4.470703,-7.040167 -4.470703,-12.445312 0,-3.403237 0.80082,-6.30654 2.402344,-8.742188 1.601523,-2.435657 3.737043,-4.271193 6.40625,-5.539062 2.669206,-1.234509 5.605546,-1.867188 8.808594,-1.867188 z m -0.09961,2.667969 c -1.701619,0 -3.169789,0.833538 -4.404297,2.535157 -1.234507,1.701618 -1.969245,4.305257 -2.269531,7.808593 h 11.310547 c 0,-3.636796 -0.36753,-6.273315 -1.101562,-7.908203 -0.734032,-1.634888 -1.900267,-2.435547 -3.535157,-2.435547 z m 79.97461,0.601563 c -3.069588,0 -5.271028,1.133359 -6.572266,3.435547 -1.301239,2.268827 -1.96875,5.538191 -1.96875,9.742187 0,7.907532 2.669399,11.878904 8.007813,11.878904 1.067683,0 2.135442,-0.23373 3.203125,-0.76757 1.067682,-0.50048 1.868502,-1.23375 2.402343,-2.167974 V 80.681641 c -0.166824,-0.50048 -0.534356,-1.03452 -1.101562,-1.56836 -0.567207,-0.533839 -1.232927,-1.000324 -1.933594,-1.333984 -0.734031,-0.33365 -1.403173,-0.533203 -2.037109,-0.533203 z M -79.580078,89.623047 c -1.801718,0.26692 -3.337433,0.667646 -4.638672,1.134765 -1.301239,0.50047 -2.368672,1.300982 -3.269531,2.46875 -0.900859,1.167779 -1.333985,2.76942 -1.333985,4.804688 0,1.134419 0.36557,2.10337 1.09961,2.9375 0.700659,0.83413 1.73587,1.23437 3.037109,1.23437 2.068638,0 3.771027,-0.80081 5.072266,-2.402339 h 0.0332 z" />
</svg>
