<?xml version="1.0" encoding="UTF-8" standalone="no"?>
<svg
   role="img"
   viewBox="0 0 256 256"
   version="1.1"
   id="svg1"
   sodipodi:docname="Simpleicons-Team-Simple-Talend.svg"
   width="256"
   height="256"
   xmlns:inkscape="http://www.inkscape.org/namespaces/inkscape"
   xmlns:sodipodi="http://sodipodi.sourceforge.net/DTD/sodipodi-0.dtd"
   xmlns="http://www.w3.org/2000/svg"
   xmlns:svg="http://www.w3.org/2000/svg"
   xmlns:rdf="http://www.w3.org/1999/02/22-rdf-syntax-ns#"
   xmlns:cc="http://creativecommons.org/ns#"
   xmlns:dc="http://purl.org/dc/elements/1.1/">
  <defs
     id="defs1" />
  <sodipodi:namedview
     id="namedview1"
     pagecolor="#505050"
     bordercolor="#eeeeee"
     borderopacity="1"
     inkscape:showpageshadow="0"
     inkscape:pageopacity="0"
     inkscape:pagecheckerboard="0"
     inkscape:deskcolor="#505050"
     showgrid="false" />
  <title
     id="title1">Talend</title>
  <metadata
     id="metadata1">
    <rdf:RDF>
      <cc:Work
         rdf:about="">
        <dc:title>Talend</dc:title>
      </cc:Work>
    </rdf:RDF>
  </metadata>
  <path
     id="rect1"
     style="fill:#000000"
     d="M 0,0 V 256 H 256 V 0 Z m 123.02539,28.023438 c 2.02604,-0.03125 4.45039,-0.03138 6.77539,0.002 7.60832,0.108333 9.08204,0.22461 14.45703,1.224609 6.78334,1.266665 13.02579,2.775392 16.80078,4.150391 26.81665,9.72499 47.87566,29.332968 58.83399,54.849609 3.67499,8.499992 5.04127,13.216813 7.09961,24.466803 0.97503,5.08333 1.00781,6.01641 1.00781,15.3164 0,9.29999 -0.0328,10.23308 -1.00781,15.31641 -2.05834,11.24166 -3.42604,15.9668 -7.10938,24.4668 a 99.666667,99.666667 0 0 1 -52.08203,52.07617 c -8.50832,3.68332 -13.22657,5.04128 -24.47656,7.09961 C 138.24089,227.96722 137.29999,228 128,228 c -9.29999,0 -10.24089,-0.0328 -15.32422,-1.00781 -11.24166,-2.05833 -15.968237,-3.42462 -24.476561,-7.09961 A 99.666667,99.666667 0 0 1 36.107422,167.81641 c -3.674996,-8.50833 -5.041278,-13.22514 -7.09961,-24.4668 C 28.03281,138.26628 28,137.33319 28,128.0332 28,118.73321 28.03281,117.80013 29.007812,112.7168 31.066144,101.47515 32.433337,96.749991 36.125,88.25 A 99.666667,99.666667 0 0 1 88.208984,36.175781 c 6.308328,-2.741664 10.025136,-3.967579 15.466796,-5.267578 4.68333,-1.116666 11.54038,-2.340886 14.95703,-2.699219 0.7375,-0.09167 2.36654,-0.154296 4.39258,-0.185546 z m 6.63672,43.833984 a 2.65,2.65 0 0 0 -1.87109,0.601562 c -0.4,0.325 -1.62435,2.241799 -2.66602,4.216797 -2.23333,4.291662 -3.28242,5.840498 -6.23242,9.298828 A 50.475,50.475 0 0 1 98.091797,100.2832 c -2.991664,1.04167 -4.115886,2.20091 -3.824219,3.89258 0.358333,2.375 0.865633,2.5918 6.015622,2.5918 h 4.61719 l 0.10742,30.34961 c 0.11667,29.44164 0.14219,30.44948 0.86719,32.75781 2.59167,8.35833 9.65808,12.60795 22.31641,13.47461 6.74165,0.46667 12.90066,-0.94063 20.58398,-4.64063 4.825,-2.34999 7.7168,-4.4763 7.7168,-5.66796 0,-0.93333 -1.33464,-3.7168 -2.16797,-4.4668 -0.61667,-0.54166 -0.86602,-0.50794 -4.04102,0.65039 -5.22499,1.98334 -7.45755,2.51758 -10.19922,2.51758 -3.89165,0.0417 -5.69244,-1.22527 -6.92578,-4.9336 -0.575,-1.65833 -0.64166,-4.50901 -0.75,-30.95898 l -0.10742,-29.08203 h 9.00781 c 8.00834,0 9.05,-0.0677 9.625,-0.60938 1.61667,-1.65833 2.27552,-6.01654 1.11719,-7.7832 l -0.60937,-0.974609 H 132.33398 V 73.574219 l -0.90039,-0.865235 a 2.65,2.65 0 0 0 -1.77148,-0.851562 z" />
</svg>
