<?xml version="1.0" encoding="UTF-8"?>
<svg width="256" height="256" viewBox="0 0 10.24 10.24" xmlns="http://www.w3.org/2000/svg">
  <title>VBA</title>
  <path
    fill="#0d1721"
    d="M 0,0 V 10.24 H 10.24 V 0 Z M 5.1432813,1.12 6.8807031,2.0211719 6.8753125,2.7184375 7.3742187,2.4555469 9.12,3.3620313 V 4.5903906 L 7.3688281,5.4807031 6.28,4.9121875 5.1321875,5.5075781 3.9628906,4.9067969 2.8525,5.47 1.1280469,4.5661719 1.12,3.3513281 2.8632812,2.4501563 3.4049219,2.7398437 3.4054688,2.0108594 Z M 5.1338281,1.396875 3.795,2.0871875 4.8948437,2.6332813 5.1375781,2.4967969 l 0.273125,0.1403125 1.0809375,-0.55375 z m 1.5057032,0.8723437 -0.9860938,0.4968751 0.5726563,0.2920312 0.4172656,-0.22 z M 3.6470312,2.2767969 3.6394531,2.8646875 4.01875,3.0657031 4.5838281,2.7660938 Z M 2.8578906,2.7291406 1.5276562,3.4103906 2.8525,4.0807813 3.3996094,3.801875 V 3.3889063 l 0.3433594,-0.193125 z m 4.5109375,0.00531 -0.8475,0.4667188 L 6.8753125,3.3889063 6.87,3.8340625 7.3742187,4.0861719 8.704375,3.4210938 Z M 5.1321094,2.750625 3.7804688,3.4317969 5.1267188,4.1183594 6.4730469,3.4478906 Z M 1.3775,3.6034375 1.3828906,4.4455469 2.7238281,5.1375 V 4.3007031 Z m 7.4770313,0.010703 -1.3730469,0.7026563 0.010703,0.8421094 1.3623438,-0.7079688 z m -5.2188282,0.026875 -0.00547,0.8367188 1.3785937,0.7026562 -0.00539,-0.8475 z m 2.9928907,0 L 5.2447656,4.3382813 5.2554688,5.175 6.6339844,4.4670312 Z M 3.3889063,4.1076562 2.9866406,4.3114063 V 5.1375 L 3.7,4.7727344 3.3942969,4.6117969 Z M 6.87,4.1236719 6.87539,4.6225781 6.5642963,4.7888281 7.2400775,5.1428125 7.2346875,4.3114063 Z M 1.3019531,6.36 h 0.9 l 0.5320313,1.9 0.56,-1.9 h 0.72 1.6946875 c 0,0 0.6557031,0.077422 0.6557031,0.6860937 0,0.6045163 -0.5385937,0.6467969 -0.5385937,0.6467969 0,0 0.60875,0.014215 0.60875,0.66 0,0.7591386 -0.7894532,0.7671095 -0.7894532,0.7671094 H 4.0139844 V 6.36 l -0.94,2.76 H 2.2219531 Z m 5.8640625,0 h 0.8520313 l 0.92,2.76 h -0.9 L 7.8267969,8.5639063 7.1673438,8.5598438 6.9460156,9.12 h -0.72 z M 4.8139844,6.9279687 v 0.5 h 0.48 c 0,1e-7 0.2679687,7.977e-4 0.2679687,-0.2479687 0,-0.253781 -0.2679687,-0.2520313 -0.2679687,-0.2520313 z M 7.5060156,7.22 7.2467969,8.099375 7.7513281,8.0961719 Z M 4.8139844,7.9959375 v 0.54 H 5.37 c 0,1e-7 0.2360156,-0.014029 0.2360156,-0.2679688 C 5.6060156,7.9954272 5.37,7.9959375 5.37,7.9959375 Z" />
</svg>